#N canvas 344 38 1512 856 10;
#N canvas 922 213 911 415 rjdj_e_vocoder 0;
#N canvas 147 0 817 617 fft-analysis 0;
#X obj 94 511 *~;
#X obj 55 511 *~;
#X obj 413 356 *~;
#X obj 372 356 *~;
#X obj 372 379 +~;
#X obj 54 183 *~;
#X obj 54 158 inlet~;
#X obj 54 206 rfft~;
#X obj 54 560 *~;
#X obj 141 245 *~;
#X obj 372 333 rfft~;
#X obj 54 535 rifft~;
#X obj 54 583 outlet~;
#X obj 107 245 *~;
#X obj 107 268 +~;
#X text 458 408 modulus;
#X obj 107 420 *~;
#X obj 600 13 block~ 1024 4;
#X obj 107 398 clip~;
#X obj 87 184 tabreceive~ \$0-hann;
#X obj 107 294 +~ 1e-20;
#X obj 108 480 *~ 0.00065;
#X obj 87 560 tabreceive~ \$0-hann;
#X obj 373 307 *~;
#X obj 373 282 inlet~;
#X obj 406 308 tabreceive~ \$0-hann;
#X obj 107 321 q8_rsqrt~;
#X obj 372 402 q8_sqrt~;
#X text 458 425 of control;
#X text 456 442 amplitude;
#X text 196 248 reciprocal;
#X text 199 267 modulus of;
#X text 195 287 filter input;
#X text 196 306 amplitude;
#X text 115 159 filter input;
#X text 438 282 control source;
#X text 434 332 Fourier transform;
#X text 28 17 Internal workings of the timbre stamping algorithm. First the "filter input" is treated as in the compressor patch \, multiplying each channel amplitude by one over its modulus (but limited by the "squelch" parameter.) It is then multiplied by the modulus of the channel amplitude for the control source (which is Fourier analyzed in parallel with the filter input.);
#X text 145 422 multiply the two amplitude;
#X text 143 439 factors (for compression;
#X text 145 455 and to apply new timbre);
#X obj 148 346 r \$0-squelch;
#X obj 170 388 *;
#X obj 170 366 t a a;
#X obj 170 409 * 0.01;
#X connect 0 0 11 1;
#X connect 1 0 11 0;
#X connect 2 0 4 1;
#X connect 3 0 4 0;
#X connect 4 0 27 0;
#X connect 5 0 7 0;
#X connect 6 0 5 0;
#X connect 7 0 13 0;
#X connect 7 0 13 1;
#X connect 7 0 1 0;
#X connect 7 1 9 0;
#X connect 7 1 9 1;
#X connect 7 1 0 0;
#X connect 8 0 12 0;
#X connect 9 0 14 1;
#X connect 10 0 3 0;
#X connect 10 0 3 1;
#X connect 10 1 2 0;
#X connect 10 1 2 1;
#X connect 11 0 8 0;
#X connect 13 0 14 0;
#X connect 14 0 20 0;
#X connect 16 0 21 0;
#X connect 18 0 16 0;
#X connect 19 0 5 1;
#X connect 20 0 26 0;
#X connect 21 0 0 1;
#X connect 21 0 1 1;
#X connect 22 0 8 1;
#X connect 23 0 10 0;
#X connect 24 0 23 0;
#X connect 25 0 23 1;
#X connect 26 0 18 0;
#X connect 27 0 16 1;
#X connect 41 0 43 0;
#X connect 42 0 44 0;
#X connect 43 0 42 0;
#X connect 43 1 42 1;
#X connect 44 0 18 2;
#X restore 110 211 pd fft-analysis;
#N canvas 0 110 565 454 hann-window 0;
#X obj 378 165 osc~;
#X obj 378 190 *~ -0.5;
#X obj 378 214 +~ 0.5;
#X obj 331 247 tabwrite~ \$0-hann;
#X obj 38 173 /;
#X obj 127 142 samplerate~;
#X obj 177 204 swap;
#X obj 177 228 /;
#X obj 49 201 * 1000;
#X obj 38 115 t f b f;
#X msg 173 92 resize \$1;
#X obj 173 116 s \$0-hann;
#X msg 382 130 0;
#X obj 330 131 t f b;
#X text 15 8 calculate Hann window table (variable window size) and constants window-hz (fundamental frequency of analysis) \, window-sec and window-msec (analysis window size in seconds and msec).;
#X obj 330 274 table \$0-hann 1024;
#X obj 49 228 s \$0-window-msec;
#X obj 38 251 s \$0-window-sec;
#X obj 38 88 r \$0-window-size;
#X obj 177 252 s \$0-window-hz;
#X obj 330 105 r \$0-window-hz;
#X connect 0 0 1 0;
#X connect 1 0 2 0;
#X connect 2 0 3 0;
#X connect 4 0 8 0;
#X connect 4 0 17 0;
#X connect 5 0 4 1;
#X connect 5 0 6 1;
#X connect 6 0 7 0;
#X connect 6 1 7 1;
#X connect 7 0 19 0;
#X connect 8 0 16 0;
#X connect 9 0 4 0;
#X connect 9 0 6 0;
#X connect 9 1 5 0;
#X connect 9 2 10 0;
#X connect 10 0 11 0;
#X connect 12 0 0 1;
#X connect 13 0 0 0;
#X connect 13 1 3 0;
#X connect 13 1 12 0;
#X connect 18 0 9 0;
#X connect 20 0 13 0;
#X restore 243 212 pd hann-window;
#X obj 545 257 loadbang;
#X obj 545 279 f \$0;
#X msg 545 300 \; pd dsp 1 \; \$1-window-size 1024 \; \$1-squelch 30 \;;
#X obj 111 186 inlet~;
#X obj 212 186 inlet~;
#X obj 109 238 outlet~;
#X text 114 75 Pd vocoder/timbre stamp;
#X obj 423 103 inlet;
#X obj 423 125 s \$0-squelch;
#X connect 0 0 7 0;
#X connect 2 0 3 0;
#X connect 3 0 4 0;
#X connect 5 0 0 0;
#X connect 6 0 0 1;
#X connect 9 0 10 0;
#X restore 65 797 pd rjdj_e_vocoder;
#X floatatom 220 748 5 0 0 0 vocodeF vocodeF - 0;
#X obj 66 573 -~ 0.5;
#X obj 66 622 clip~ -0.5 0.5;
#X obj 66 645 cos~;
#X obj 65 728 hip~ 5;
#X obj 66 598 *~ 3;
#X obj 65 761 *~ 0.2;
#X obj 66 550 phasor~ 60;
#X floatatom 66 507 5 0 0 0 vododePitch vododePitch - 0;
#X floatatom 593 600 0 0 0 0 pitchShift pitchShift - 0;
#X obj 655 836 *~;
#X obj 778 773 line~;
#X floatatom 810 612 0 0 0 0 pitchWindow pitchWindow - 0;
#X obj 778 747 pack 0 200;
#X obj 592 579 r transpose;
#X obj 592 649 exp;
#X floatatom 592 671 6 0 0 0 - - - 0;
#X obj 592 741 /;
#X obj 719 671 * 0.001;
#X obj 887 843 line~;
#X obj 887 818 pack 0 200;
#X floatatom 890 768 0 0 0 0 - - - 0;
#X obj 887 741 r delay;
#X obj 655 862 +~;
#X obj 592 886 cos~;
#X obj 592 913 *~;
#X obj 592 937 +~;
#X obj 679 795 wrap~;
#X obj 824 838 *~;
#X obj 824 868 +~;
#X obj 761 892 cos~;
#X obj 761 914 *~;
#X obj 719 698 t b f;
#X floatatom 592 763 6 0 0 0 - - - 0;
#X obj 679 768 +~ 0.5;
#X obj 592 836 -~ 0.5;
#X obj 592 862 *~ 0.5;
#X obj 761 837 -~ 0.5;
#X obj 761 870 *~ 0.5;
#X obj 592 692 - 1;
#X obj 592 627 * 0.05776;
#X obj 592 714 * -1;
#X text 626 604 <-- transposition;
#X text 669 617 (halftones);
#X text 635 665 speed;
#X text 634 679 change;
#X text 854 615 <--window (msec);
#X text 627 734 tape head;
#X obj 592 794 phasor~;
#X obj 887 794 max 1.5;
#X text 890 700 delay;
#X text 887 718 (msec);
#X obj 810 638 max 1;
#X text 628 747 rotation freq;
#X obj 655 886 vd~ G09-del;
#X obj 824 890 vd~ G09-del;
#X obj 447 625 delwrite~ G09-del 5000;
#X obj 64 832 *~ 1;
#X obj 1221 625 delwrite~ phase1 100;
#X obj 1201 803 delwrite~ phase2 100;
#X obj 1356 628 hsl 128 15 0 100 0 0 empty empty empty -2 -8 0 10 #fcfcfc #000000 #000000 0 1;
#X floatatom 1354 651 5 0 0 0 - - - 0;
#X obj 1353 680 phasor~;
#X obj 1324 710 cos~;
#X obj 1379 711 +~ 0.5;
#X obj 1323 744 *~ 2;
#X obj 1321 778 +~ 2;
#X obj 1386 750 wrap~;
#X obj 1387 784 cos~;
#X obj 1386 818 *~ 2;
#X obj 1384 852 +~ 2;
#X obj 1380 883 vd~ phase2;
#X obj 1323 978 vd~ phase1;
#X obj 1382 918 *~ 0.8;
#X obj 1336 1013 *~ 0.8;
#X obj 1428 713 hsl 128 15 0 10 0 0 empty empty empty -2 -8 0 10 #fcfcfc #000000 #000000 0 1;
#X floatatom 1426 736 5 0 0 0 - - - 0;
#X obj 1449 883 hsl 128 15 0 0.8 0 0 empty empty empty -2 -8 0 10 #fcfcfc #000000 #000000 0 1;
#X floatatom 1447 906 5 0 0 0 - - - 0;
#X obj 492 1178 dac~;
#X obj 250 490 adc~;
#X msg 1131 60 start;
#X msg 1169 60 stop;
#X obj 1161 259 dac~;
#X obj 1696 -107 cyclone/buffer~ Metal5 Metal5.wav;
#X obj 1694 -83 cyclone/buffer~ TubaDist2 TubaDist2.wav;
#X obj -27 577 -~ 0.5;
#X obj -27 626 clip~ -0.5 0.5;
#X obj -27 649 cos~;
#X obj -28 732 hip~ 5;
#X obj -27 602 *~ 3;
#X obj -28 765 *~ 0.2;
#X obj -27 554 phasor~ 60;
#X floatatom -27 529 5 0 0 0 - - - 0;
#X obj -129 577 -~ 0.5;
#X obj -129 626 clip~ -0.5 0.5;
#X obj -129 649 cos~;
#X obj -130 732 hip~ 5;
#X obj -129 602 *~ 3;
#X obj -130 765 *~ 0.2;
#X obj -129 554 phasor~ 60;
#X floatatom -129 529 5 0 0 0 - - - 0;
#X obj 418 1033 hsl 128 15 0 20 0 0 empty volumeVocodeOut volumeVocodeOut -2 -8 0 10 #fcfcfc #000000 #000000 0 1;
#X floatatom 419 1062 5 0 0 0 - - - 0;
#X obj 399 1093 *~ 0;
#X obj -118 253 hsl 128 15 0 1 0 0 volumeSample empty volume_sample -2 -8 0 10 #fcfcfc #000000 #000000 0 1;
#X obj 147 721 *~ 1;
#X obj 447 597 *~ 1;
#X obj 1193 596 *~ 1;
#X obj -120 -165 key;
#X floatatom -122 -112 5 0 0 0 - - - 0;
#X obj -127 -52 bng 15 250 50 0 empty empty empty 17 7 0 10 #fcfcfc #000000 #000000;
#X obj -68 -51 bng 15 250 50 0 empty empty empty 17 7 0 10 #fcfcfc #000000 #000000;
#X obj -12 -50 bng 15 250 50 0 empty empty empty 17 7 0 10 #fcfcfc #000000 #000000;
#X obj 93 -47 bng 15 250 50 0 empty empty empty 17 7 0 10 #fcfcfc #000000 #000000;
#X obj 149 -48 bng 15 250 50 0 empty empty empty 17 7 0 10 #fcfcfc #000000 #000000;
#X obj 209 -46 bng 15 250 50 0 empty empty empty 17 7 0 10 #fcfcfc #000000 #000000;
#X obj 259 -47 bng 15 250 50 0 empty empty empty 17 7 0 10 #fcfcfc #000000 #000000;
#X obj 313 -36 bng 15 250 50 0 empty empty empty 17 7 0 10 #fcfcfc #000000 #000000;
#X obj 365 -44 bng 15 250 50 0 empty empty empty 17 7 0 10 #fcfcfc #000000 #000000;
#X obj 428 -40 bng 15 250 50 0 empty empty empty 17 7 0 10 #fcfcfc #000000 #000000;
#X obj 479 -38 bng 15 250 50 0 empty empty empty 17 7 0 10 #fcfcfc #000000 #000000;
#X obj 535 -40 bng 15 250 50 0 empty empty empty 17 7 0 10 #fcfcfc #000000 #000000;
#X obj 595 -44 bng 15 250 50 0 empty empty empty 17 7 0 10 #fcfcfc #000000 #000000;
#X obj 644 -43 bng 15 250 50 0 empty empty empty 17 7 0 10 #fcfcfc #000000 #000000;
#X obj 696 -35 bng 15 250 50 0 empty empty empty 17 7 0 10 #fcfcfc #000000 #000000;
#X obj 576 1037 hsl 128 15 0 20 0 0 empty volumePitchOut volumePitchOut -2 -8 0 10 #fcfcfc #000000 #000000 0 1;
#X floatatom 574 1062 5 0 0 0 - - - 0;
#X obj 554 1093 *~ 0;
#X obj 208 647 hsl 128 15 0 20 0 0 empty volumeInVocod volumeInVocod -2 -8 0 10 #fcfcfc #000000 #000000 0 1;
#X floatatom 199 680 5 0 0 0 - - - 0;
#X obj 466 519 hsl 128 15 0 20 0 0 empty volumeInPitch volumeInPitch -2 -8 0 10 #fcfcfc #000000 #000000 0 1;
#X floatatom 467 548 5 0 0 0 - - - 0;
#X obj 23 251 hsl 128 15 0 20 0 0 volumeInVocod empty volumeInVocod -2 -8 0 10 #fcfcfc #000000 #000000 0 1;
#X obj 165 249 hsl 128 15 0 20 0 0 volumeInPitch empty volumeInPitch -2 -8 0 10 #fcfcfc #000000 #000000 0 1;
#X floatatom 368 246 5 0 0 0 vododePitch - vododePitch 0;
#X floatatom 453 247 5 0 0 0 vocodeF - vocodeF 0;
#X floatatom 560 246 0 0 0 0 pitchShift - pitchShift 0;
#X floatatom 659 247 0 0 0 0 pitchWindow - pitchWindow 0;
#X obj 699 250 hsl 128 15 0 20 0 0 volumeVocodeOut empty volumeVocodeOut -2 -8 0 10 #fcfcfc #000000 #000000 0 1;
#X obj 860 253 hsl 128 15 0 20 0 0 volumePitchOut empty volumePitchOut -2 -8 0 10 #fcfcfc #000000 #000000 0 1;
#X obj -38 141 unjoin 9, f 145;
#X text 250 -105 1;
#X text 313 -105 2;
#X text 369 -105 3;
#X text 419 -105 4;
#X text 479 -106 5;
#X text 533 -104 6;
#X text 583 -107 7;
#X text 644 -105 8;
#X text 700 -108 9;
#X text 208 -106 0;
#X obj 808 -45 bng 15 250 50 0 empty empty empty 17 7 0 10 #fcfcfc #000000 #000000;
#X obj -123 -83 sel 8 10 42 43 45 47 48 49 50 51 52 53 54 55 56 57 58 46, f 165;
#X text 806 -106 .;
#X text 152 -107 /;
#X text -14 -109 *;
#X text 96 -109 -;
#X text 41 -112 +;
#X text -128 -33 bs;
#X text -68 -108 ent;
#X msg 246 108 1 0 3 0 0 -6 10 0 3;
#X msg -36 109 1 3 0 40 1000 0 0 3 0;
#X msg 101 110 1 3 0 100 1000 0 0 3 0;
#X msg 492 111 1 3 3 60 1000 -5 10 3 3;
#X msg 372 111 1 0 3 0 0 8 20 0 3;
#X msg 642 112 1 4 3 40 1000 6 20 3 3;
#X msg -151 107 0 0 0 0 0 0 0 0 0;
#X obj 1131 82 cyclone/play~ Metal5 2 @loop 1;
#X obj 1330 81 cyclone/play~ TubaDist2 2 @loop 1;
#X obj 1381 245 dac~;
#X obj 1696 -138 cyclone/buffer~ Idle Idle.wav;
#X obj 1599 249 dac~;
#X obj 1548 85 cyclone/play~ Idle 2 @loop 1;
#X obj 1697 -164 cyclone/buffer~ Drone Drone.wav;
#X obj 1786 251 dac~;
#X obj 1735 87 cyclone/play~ Drone 2 @loop 1;
#X msg 1114 342 start;
#X msg 1152 342 stop;
#X obj 1165 528 dac~;
#X obj 1114 364 cyclone/play~ Metal4 2;
#X obj 1696 -191 cyclone/buffer~ Metal4 Metal4.wav;
#X msg 1308 343 start;
#X msg 1346 343 stop;
#X obj 1359 529 dac~;
#X obj 1697 -217 cyclone/buffer~ Horn Horn.wav;
#X obj 1308 364 cyclone/play~ Horn 2;
#X obj 1699 -244 cyclone/buffer~ Lazer Lazer.wav;
#X msg 1504 357 start;
#X msg 1542 357 stop;
#X obj 1555 543 dac~;
#X obj 1504 378 cyclone/play~ Lazer 2;
#X obj 1700 -269 cyclone/buffer~ Rev Rev.wav;
#X msg 1730 354 stop;
#X obj 1743 540 dac~;
#X obj 1692 375 cyclone/play~ Rev 2;
#X obj 1141 234 *~ 1;
#X obj 1195 233 *~ 1;
#X obj 1361 220 *~ 1;
#X obj 1415 219 *~ 1;
#X obj 1579 224 *~ 1;
#X obj 1633 223 *~ 1;
#X obj 1766 226 *~ 1;
#X obj 1820 225 *~ 1;
#X obj 1145 503 *~ 1;
#X obj 1199 502 *~ 1;
#X obj 1339 504 *~ 1;
#X obj 1393 503 *~ 1;
#X obj 1535 518 *~ 1;
#X obj 1589 517 *~ 1;
#X obj 1723 515 *~ 1;
#X obj 1777 514 *~ 1;
#X obj 1139 9 tgl 15 0 empty empty empty 17 7 0 10 #fcfcfc #000000 #000000 0 1;
#X obj 1136 32 sel 0 1;
#X msg 1330 56 start;
#X msg 1368 56 stop;
#X obj 1338 5 tgl 15 0 empty empty empty 17 7 0 10 #fcfcfc #000000 #000000 0 1;
#X obj 1335 28 sel 0 1;
#X msg 1549 62 start;
#X msg 1587 62 stop;
#X obj 1557 11 tgl 15 0 empty empty empty 17 7 0 10 #fcfcfc #000000 #000000 0 1;
#X obj 1554 34 sel 0 1;
#X msg 1739 62 start;
#X msg 1777 62 stop;
#X obj 1747 11 tgl 15 0 empty empty empty 17 7 0 10 #fcfcfc #000000 #000000 0 1;
#X obj 1744 34 sel 0 1;
#X obj 467 1143 *~ 1;
#X obj 437 360 + 1;
#X obj 272 361 - 1;
#X floatatom 361 328 5 0 0 0 - - - 0;
#X msg 274 408 set \$1;
#X floatatom 273 436 5 0 20 0 - - - 0;
#X floatatom 271 457 5 0 0 0 - - - 0;
#X obj 253 411 bng 15 250 50 0 empty empty empty 17 7 0 10 #fcfcfc #000000 #000000;
#X msg 435 404 set \$1;
#X floatatom 436 430 5 0 0 0 - - - 0;
#X floatatom 437 455 5 0 0 0 - - - 0;
#X obj 414 405 bng 15 250 50 0 empty empty empty 17 7 0 10 #fcfcfc #000000 #000000;
#X obj 273 387 nbx 5 14 0 20 0 0 empty empty empty 0 -8 0 10 #fcfcfc #000000 #000000 0 256;
#X obj 435 385 nbx 5 14 0 20 0 0 empty empty empty 0 -8 0 10 #fcfcfc #000000 #000000 0 256;
#X floatatom 360 439 5 0 0 0 - - - 0;
#X obj 360 416 * 0.1;
#X obj 536 1141 *~ 1;
#X obj 41 -43 bng 15 250 50 0 empty empty empty 17 7 0 10 #fcfcfc #000000 #000000;
#X msg 1692 354 start;
#X text 1196 561 Phaser (Unused);
#X text 606 521 Pitch Shift;
#X text -11 466 Vocoder;
#X text 382 299 Voice Volume Control;
#X text 1532 -180 Load Wave Files To Buffer;
#X text 1261 -41 Samples Loop;
#X text 1348 302 Samples One Shot;
#X obj 819 1081 snapshot~;
#X obj 910 988 tgl 15 0 empty empty empty 17 7 0 10 #fcfcfc #000000 #000000 0 1;
#X obj 996 960 expr pow(10 \, $f1/20)-1;
#X floatatom 1023 1096 5 0 0 0 - - - 0;
#X msg 1043 1168 send /voicelevel/ \$1;
#X obj 904 917 loadbang;
#X msg 864 958 1;
#X obj 921 1219 netsend -u;
#X msg 919 1126 disconnect;
#X obj 919 1062 tgl 15 0 empty empty empty 17 7 0 10 #fcfcfc #000000 #000000 0 1;
#X msg 746 1151 connect localhost 2000;
#X floatatom 30 413 0 0 0 0 - - - 0;
#X floatatom 40 423 0 0 0 0 - - - 0;
#X floatatom 40 443 5 0 0 0 - - - 0;
#X floatatom 930 1279 5 0 0 0 - - - 0;
#X obj 819 1045 metro 16.66;
#X connect 0 0 58 0;
#X connect 1 0 0 2;
#X connect 2 0 6 0;
#X connect 3 0 4 0;
#X connect 4 0 5 0;
#X connect 5 0 7 0;
#X connect 6 0 3 0;
#X connect 7 0 0 0;
#X connect 8 0 2 0;
#X connect 9 0 8 0;
#X connect 10 0 41 0;
#X connect 11 0 24 0;
#X connect 12 0 11 1;
#X connect 12 0 29 1;
#X connect 13 0 53 0;
#X connect 14 0 12 0;
#X connect 16 0 17 0;
#X connect 17 0 40 0;
#X connect 18 0 34 0;
#X connect 19 0 33 0;
#X connect 20 0 24 1;
#X connect 20 0 30 1;
#X connect 21 0 20 0;
#X connect 22 0 50 0;
#X connect 23 0 22 0;
#X connect 24 0 55 0;
#X connect 25 0 26 0;
#X connect 26 0 27 0;
#X connect 27 0 129 0;
#X connect 28 0 29 0;
#X connect 28 0 38 0;
#X connect 29 0 30 0;
#X connect 30 0 56 0;
#X connect 31 0 32 0;
#X connect 32 0 27 1;
#X connect 33 0 18 0;
#X connect 33 1 18 1;
#X connect 34 0 49 0;
#X connect 35 0 28 0;
#X connect 36 0 37 0;
#X connect 37 0 25 0;
#X connect 38 0 39 0;
#X connect 39 0 31 0;
#X connect 40 0 42 0;
#X connect 41 0 16 0;
#X connect 42 0 18 0;
#X connect 49 0 11 0;
#X connect 49 0 36 0;
#X connect 49 0 35 0;
#X connect 50 0 21 0;
#X connect 53 0 19 0;
#X connect 53 0 14 0;
#X connect 55 0 26 1;
#X connect 56 0 32 1;
#X connect 58 0 105 0;
#X connect 61 0 62 0;
#X connect 62 0 63 0;
#X connect 63 0 65 0;
#X connect 63 0 64 0;
#X connect 64 0 66 0;
#X connect 65 0 68 0;
#X connect 66 0 67 0;
#X connect 67 0 73 0;
#X connect 68 0 69 0;
#X connect 69 0 70 0;
#X connect 70 0 71 0;
#X connect 71 0 72 0;
#X connect 72 0 74 0;
#X connect 73 0 75 0;
#X connect 74 0 60 0;
#X connect 75 0 59 0;
#X connect 76 0 77 0;
#X connect 77 0 71 1;
#X connect 77 0 70 1;
#X connect 77 0 66 1;
#X connect 77 0 67 1;
#X connect 78 0 79 0;
#X connect 79 0 74 1;
#X connect 79 0 75 1;
#X connect 81 0 107 0;
#X connect 81 0 108 0;
#X connect 82 0 169 0;
#X connect 83 0 169 0;
#X connect 87 0 91 0;
#X connect 88 0 89 0;
#X connect 89 0 90 0;
#X connect 90 0 92 0;
#X connect 91 0 88 0;
#X connect 93 0 87 0;
#X connect 94 0 93 0;
#X connect 95 0 99 0;
#X connect 96 0 97 0;
#X connect 97 0 98 0;
#X connect 98 0 100 0;
#X connect 99 0 96 0;
#X connect 101 0 95 0;
#X connect 102 0 101 0;
#X connect 103 0 104 0;
#X connect 104 0 105 1;
#X connect 105 0 227 0;
#X connect 105 0 243 0;
#X connect 107 0 0 1;
#X connect 108 0 57 0;
#X connect 109 0 59 0;
#X connect 109 0 60 0;
#X connect 110 0 111 0;
#X connect 111 0 154 0;
#X connect 112 0 213 0;
#X connect 113 0 183 0;
#X connect 114 0 189 0;
#X connect 115 0 234 0;
#X connect 116 0 245 0;
#X connect 117 0 168 0;
#X connect 118 0 163 0;
#X connect 119 0 164 0;
#X connect 120 0 162 0;
#X connect 121 0 166 0;
#X connect 122 0 165 0;
#X connect 123 0 167 0;
#X connect 124 0 217 0;
#X connect 125 0 221 0;
#X connect 126 0 225 0;
#X connect 127 0 128 0;
#X connect 128 0 129 1;
#X connect 129 0 227 0;
#X connect 129 0 243 0;
#X connect 130 0 131 0;
#X connect 131 0 107 1;
#X connect 132 0 133 0;
#X connect 133 0 108 1;
#X connect 142 1 134 0;
#X connect 142 2 135 0;
#X connect 142 3 136 0;
#X connect 142 4 137 0;
#X connect 142 5 138 0;
#X connect 142 6 139 0;
#X connect 142 7 140 0;
#X connect 142 8 141 0;
#X connect 153 0 178 0;
#X connect 154 0 112 0;
#X connect 154 1 113 0;
#X connect 154 2 114 0;
#X connect 154 3 244 0;
#X connect 154 4 115 0;
#X connect 154 5 116 0;
#X connect 154 6 117 0;
#X connect 154 7 118 0;
#X connect 154 8 119 0;
#X connect 154 9 120 0;
#X connect 154 10 121 0;
#X connect 154 11 122 0;
#X connect 154 12 123 0;
#X connect 154 13 124 0;
#X connect 154 14 125 0;
#X connect 154 15 126 0;
#X connect 154 17 153 0;
#X connect 162 0 142 0;
#X connect 163 0 142 0;
#X connect 164 0 142 0;
#X connect 165 0 142 0;
#X connect 166 0 142 0;
#X connect 167 0 142 0;
#X connect 168 0 142 0;
#X connect 169 0 197 0;
#X connect 169 1 198 0;
#X connect 170 0 199 0;
#X connect 170 1 200 0;
#X connect 174 0 201 0;
#X connect 174 1 202 0;
#X connect 177 0 203 0;
#X connect 177 1 204 0;
#X connect 178 0 181 0;
#X connect 179 0 181 0;
#X connect 181 0 205 0;
#X connect 181 1 206 0;
#X connect 183 0 187 0;
#X connect 184 0 187 0;
#X connect 187 0 207 0;
#X connect 187 1 208 0;
#X connect 189 0 192 0;
#X connect 190 0 192 0;
#X connect 192 0 209 0;
#X connect 192 1 210 0;
#X connect 194 0 196 0;
#X connect 196 0 211 0;
#X connect 196 1 212 0;
#X connect 197 0 84 0;
#X connect 198 0 84 1;
#X connect 199 0 171 0;
#X connect 200 0 171 1;
#X connect 201 0 173 0;
#X connect 202 0 173 1;
#X connect 203 0 176 0;
#X connect 204 0 176 1;
#X connect 205 0 180 0;
#X connect 206 0 180 1;
#X connect 207 0 185 0;
#X connect 208 0 185 1;
#X connect 209 0 191 0;
#X connect 210 0 191 1;
#X connect 211 0 195 0;
#X connect 212 0 195 1;
#X connect 213 0 214 0;
#X connect 214 0 83 0;
#X connect 214 1 82 0;
#X connect 215 0 170 0;
#X connect 216 0 170 0;
#X connect 217 0 218 0;
#X connect 218 0 216 0;
#X connect 218 1 215 0;
#X connect 219 0 174 0;
#X connect 220 0 174 0;
#X connect 221 0 222 0;
#X connect 222 0 220 0;
#X connect 222 1 219 0;
#X connect 223 0 177 0;
#X connect 224 0 177 0;
#X connect 225 0 226 0;
#X connect 226 0 224 0;
#X connect 226 1 223 0;
#X connect 227 0 80 0;
#X connect 228 0 240 0;
#X connect 229 0 239 0;
#X connect 230 0 228 0;
#X connect 230 0 229 0;
#X connect 230 0 242 0;
#X connect 231 0 232 0;
#X connect 232 0 233 0;
#X connect 233 0 230 0;
#X connect 234 0 232 0;
#X connect 235 0 236 0;
#X connect 236 0 237 0;
#X connect 237 0 230 0;
#X connect 238 0 236 0;
#X connect 239 0 231 0;
#X connect 240 0 235 0;
#X connect 241 0 227 1;
#X connect 241 0 243 1;
#X connect 242 0 241 0;
#X connect 243 0 80 1;
#X connect 243 0 253 0;
#X connect 244 0 238 0;
#X connect 245 0 196 0;
#X connect 253 0 255 0;
#X connect 254 0 263 0;
#X connect 254 0 268 0;
#X connect 255 0 256 0;
#X connect 256 0 257 0;
#X connect 257 0 260 0;
#X connect 258 0 259 0;
#X connect 258 0 254 0;
#X connect 260 0 267 0;
#X connect 261 0 260 0;
#X connect 262 0 261 0;
#X connect 263 0 260 0;
#X connect 265 0 266 0;
#X connect 268 0 253 0;
